<svg xmlns="http://www.w3.org/2000/svg" width="24" height="24" viewBox="0 0 24 24">
  <path fill="#2E7D32" d="M2,0 H22 A2,2 0 0 1 24,2 V22 A2,2 0 0 1 22,24 H2 A2,2 0 0 1 0,22 V2 A2,2 0 0 1 2,0 Z"/>
  <path fill="#000000" d="M 5.8,8 L 18.2,8 L 20.5,11 L 20.5,16 L 18.5,19 L 5.5,19 L 3.5,16 L 3.5,11 Z"/>
  <path fill="#FFCC00" d="M 7.5,5.5 L 16.5,5.5 L 18.5,8.5 L 16.5,11.5 L 7.5,11.5 L 5.5,8.5 Z"/>
  <path fill="#F5F5F5" d="M 8.2,10.5 h7.6 v5 h-7.6 Z"/>
  <path fill="#FFCC00" d="M 4.5,13 L 5.5,11.5 L 5.5,14.5 Z M 19.5,13 L 18.5,11.5 L 18.5,14.5 Z"/>
  <path fill="#000000" d="M 8.2,7.5 m -0.8,0 a0.8,0.8 0 1,0 1.6,0 a0.8,0.8 0 1,0 -1.6,0 M 12,7.5 m -0.8,0 a0.8,0.8 0 1,0 1.6,0 a0.8,0.8 0 1,0 -1.6,0 M 15.8,7.5 m -0.8,0 a0.8,0.8 0 1,0 1.6,0 a0.8,0.8 0 1,0 -1.6,0"/>
</svg>
